Coordinates
version=1
nRows=7
nColumns=40
inDegrees=yes

Units are S.I. units (second, meters, Newtons, ...)
Angles are in degrees.

endheader
time	pelvis_tilt	pelvis_list	pelvis_rotation	pelvis_tx	pelvis_ty	pelvis_tz	hip_flexion_r	hip_adduction_r	hip_rotation_r	knee_angle_r	knee_angle_r_beta	ankle_angle_r	subtalar_angle_r	mtp_angle_r	hip_flexion_l	hip_adduction_l	hip_rotation_l	knee_angle_l	knee_angle_l_beta	ankle_angle_l	subtalar_angle_l	mtp_angle_l	lumbar_extension	lumbar_bending	lumbar_rotation	arm_flex_r	arm_add_r	arm_rot_r	elbow_flex_r	pro_sup_r	wrist_flex_r	wrist_dev_r	arm_flex_l	arm_add_l	arm_rot_l	elbow_flex_l	pro_sup_l	wrist_flex_l	wrist_dev_l
      5.21500000	     -5.50726783	     -3.31804579	      3.05771138	      0.83930802	      0.91908845	      0.43319500	      3.06400295	     -2.44476638	    -14.41495100	     29.94958090	     29.94958090	     16.08985549	     -2.40225493	     -8.23979430	     27.56339972	     -2.99120461	     -2.29031690	     25.80084972	     25.80084972	      6.97029289	    -14.31666197	      3.70858243	     -7.15477101	      3.16085851	      5.35784913	     21.83504362	    -15.00076495	      3.48733231	     83.60601165	     45.13294180	      0.00000000	      0.00000000	     -1.89696631	     -9.64628293	      7.61616902	     29.97005420	     44.88529155	      0.00000000	      0.00000000
      5.22771429	     -5.40006833	     -3.38811930	      2.78224296	      0.83992959	      0.92034677	      0.43110526	      4.21950073	     -2.95837657	    -13.88524078	     32.94073473	     32.94073473	     13.42420034	     -4.28805418	    -12.60771241	     26.84881190	     -3.18644926	     -2.91161874	     25.91664927	     25.91664927	      7.87588837	    -13.57851650	      3.55079188	     -7.03843214	      3.19422860	      4.08275465	     22.19033698	    -14.00415622	      6.32948330	     76.42980714	     45.26791020	      0.00000000	      0.00000000	     -1.72435826	     -9.57354386	      6.03164282	     31.06887822	     45.18465929	      0.00000000	      0.00000000
      5.24042857	     -5.26674787	     -3.27474808	      2.54026342	      0.84028291	      0.92151054	      0.42895481	      5.76112992	     -3.79104625	    -13.43523257	     36.78726360	     36.78726360	     12.10991896	     -5.37879697	    -12.84487590	     25.96083415	     -3.15617037	     -3.57005115	     25.74031202	     25.74031202	      8.51621992	    -12.88219214	      3.11028164	     -7.18986801	      3.11586738	      4.38934396	     20.39212460	    -13.99593832	      6.75234728	     74.34388208	     45.31398112	      0.00000000	      0.00000000	     -0.34404296	     -9.46872011	      5.90995387	     31.66937391	     45.22693060	      0.00000000	      0.00000000
      5.25314286	     -5.32090683	     -3.22565364	      2.19557293	      0.84041437	      0.92228618	      0.42727606	      7.70171941	     -4.45936474	    -12.73485320	     40.78414547	     40.78414547	     10.69531023	     -6.75814780	    -12.84519393	     25.29411781	     -3.29281712	     -4.47238979	     25.58560614	     25.58560614	      9.17553928	    -11.89449305	      2.49823883	     -7.08480991	      2.95751079	      4.83784168	     18.68606180	    -14.11105072	      7.19918730	     71.06735138	     45.39864143	      0.00000000	      0.00000000	      1.03423110	     -9.39227151	      5.80779659	     32.28846237	     45.26642735	      0.00000000	      0.00000000
      5.26585714	     -5.21193694	     -3.41144357	      1.94731728	      0.84051273	      0.92325000	      0.42588625	      9.47686913	     -4.67476280	    -11.93912097	     44.63518588	     44.63518588	      9.57213036	     -8.29640580	    -11.42148509	     24.54031297	     -3.79750445	     -5.65185943	     25.56684641	     25.56684641	      9.88424514	    -10.08525228	      1.33653190	     -6.97102815	      3.10202207	      3.91147382	     19.11802575	    -12.75531162	      8.19195060	     63.03465574	     45.62229711	      0.00000000	      0.00000000	      1.82262799	     -9.56663991	      5.73855039	     32.71460278	     45.30614548	      0.00000000	      0.00000000
      5.27857143	     -5.12335075	     -3.23320207	      1.72464647	      0.84033681	      0.92399820	      0.42418811	     11.38328985	     -5.45702399	    -11.43197775	     48.57729191	     48.57729191	      8.29083148	     -9.31088331	    -11.14393184	     23.72776088	     -3.67375872	     -6.25161728	     25.36568890	     25.36568890	     10.35005089	     -9.53695191	      1.02573337	     -7.12195011	      2.88289217	      4.02907416	     17.25717303	    -12.90718072	      8.72060224	     60.97109541	     45.66112989	      0.00000000	      0.00000000	      3.17540364	     -9.66186645	      5.58675388	     33.54199927	     45.35001183	      0.00000000	      0.00000000
      5.29128571	     -5.06395334	     -3.18398160	      1.49652439	      0.84004689	      0.92464295	      0.42280398	     13.34225848	     -5.94805403	    -10.80792896	     52.33103893	     52.33103893	      7.21269925	    -10.50142009	    -10.42048453	     22.93874751	     -3.72619099	     -6.91656894	     25.12768590	     25.12768590	     10.92402551	     -8.71002245	      0.57621826	     -7.17358521	      2.76853390	      4.22326244	     15.54023174	    -13.10139630	      9.21569654	     58.07117440	     45.73032847	      0.00000000	      0.00000000	      4.55874246	     -9.71272356	      5.50845786	     34.38418395	     45.38446313	      0.00000000	      0.00000000
